<svg width="470" height="455" viewBox="0 0 470 455" fill="none" xmlns="http://www.w3.org/2000/svg">
<path d="M88.963 178.889C88.3493 175.316 87.6933 171.6 87.505 170.633L87.505 170.633C87.4909 170.561 87.5002 170.43 87.6347 170.216C87.77 170.001 88.0064 169.744 88.3624 169.451C89.0732 168.866 90.1737 168.206 91.6117 167.497C94.4804 166.084 98.5933 164.525 103.351 163.015C112.866 159.997 124.887 157.2 134.538 156.166L134.485 155.669L134.538 156.166C150.473 154.459 170.697 156.084 187.862 160.457C193.436 161.878 200.623 164.288 206.351 166.502C209.215 167.609 211.704 168.663 213.437 169.515C214.307 169.943 214.969 170.312 215.391 170.604C215.529 170.699 215.63 170.778 215.7 170.842C215.695 170.848 215.69 170.854 215.684 170.86C215.565 170.991 215.393 171.169 215.171 171.389C214.73 171.829 214.106 172.423 213.345 173.13C211.824 174.544 209.764 176.401 207.533 178.358C194.883 189.454 182.698 205.15 173.139 221.684C163.581 238.215 156.625 255.626 154.467 270.162L154.961 270.236L154.467 270.162C154.221 271.818 154.026 272.986 153.743 273.742C153.603 274.114 153.46 274.335 153.322 274.46C153.2 274.57 153.059 274.627 152.848 274.624C152.617 274.619 152.297 274.54 151.854 274.339C151.415 274.14 150.887 273.837 150.247 273.42C148.964 272.587 147.284 271.336 145.047 269.65C116.817 248.379 94.7717 212.696 88.963 178.889ZM88.963 178.889L88.4702 178.974L88.963 178.889ZM215.822 170.975C215.821 170.975 215.818 170.97 215.814 170.961C215.82 170.97 215.823 170.975 215.822 170.975Z" fill="#B8B9BF" stroke="#B8B9BF"/>
<path d="M254.511 170.582C254.524 170.563 254.542 170.54 254.567 170.512C254.705 170.355 254.962 170.147 255.359 169.895C256.145 169.396 257.363 168.796 258.929 168.128C262.056 166.794 266.493 165.218 271.455 163.651C281.385 160.516 293.352 157.435 301.03 156.399C324.845 153.187 356.83 157.741 379.706 167.607L379.904 167.147L379.706 167.607L382.957 169.008L382.115 174.423C376.406 211.137 354.826 247.175 325.172 269.521C324.892 269.733 324.621 269.937 324.358 270.135C322.484 271.55 321.07 272.617 319.964 273.315C319.335 273.712 318.834 273.972 318.425 274.109C318.018 274.244 317.746 274.245 317.548 274.18C317.353 274.117 317.151 273.966 316.935 273.636C316.715 273.301 316.505 272.816 316.287 272.145C315.905 270.966 315.535 269.321 315.043 267.134C314.974 266.829 314.903 266.513 314.829 266.186C307.398 233.312 287.753 200.113 262.75 178.181C260.519 176.223 258.459 174.367 256.938 172.953C256.177 172.246 255.554 171.651 255.112 171.212C254.891 170.992 254.719 170.814 254.599 170.682C254.564 170.643 254.535 170.61 254.511 170.582ZM254.477 170.642C254.476 170.642 254.477 170.639 254.48 170.633C254.478 170.639 254.477 170.642 254.477 170.642Z" fill="#0075BA" stroke="#0075BA"/>
<path d="M59.4964 185.348L59.1973 184.947L59.4964 185.348C59.9348 185.021 60.3484 184.71 60.7391 184.417C62.2851 183.258 63.4712 182.368 64.4105 181.757C64.9977 181.375 65.4622 181.119 65.8375 180.976C66.214 180.833 66.4509 180.822 66.609 180.863C66.7541 180.9 66.9092 181 67.0823 181.259C67.2613 181.527 67.4345 181.929 67.6146 182.503C67.9026 183.422 68.1777 184.676 68.5389 186.323C68.6305 186.742 68.7278 187.185 68.8322 187.655L69.3203 187.546L68.8322 187.655C78.291 230.206 105.47 269.203 142.456 293.292L150.299 298.401L150.316 307.713C150.4 351.357 168.826 393.142 202.633 426.423L215.08 438.678L209.99 440.928L210.192 441.385L209.99 440.928C138.369 472.603 53.1072 442.782 17.3685 373.567C-16.2358 308.483 1.66866 228.521 59.4964 185.348Z" fill="#0098D7" stroke="#0098D7"/>
<path d="M410.1 185.348L410.399 184.947L410.1 185.348C467.917 228.513 485.826 308.496 452.228 373.567C416.489 442.782 331.228 472.603 259.606 440.928L259.404 441.385L259.606 440.928L254.516 438.678L266.964 426.423C300.719 393.193 319.298 351.029 319.298 307.584V298.4L327.14 293.292C364.126 269.203 391.306 230.206 400.764 187.655C400.869 187.185 400.966 186.742 401.058 186.323C401.419 184.676 401.694 183.422 401.982 182.503C402.162 181.929 402.335 181.527 402.514 181.259C402.687 181 402.842 180.9 402.988 180.863C403.146 180.822 403.383 180.833 403.759 180.976C404.134 181.119 404.599 181.375 405.186 181.757C406.125 182.368 407.312 183.258 408.858 184.418C409.248 184.711 409.662 185.021 410.1 185.348Z" fill="#0075BA" stroke="#0075BA"/>
<path d="M226.926 188.017L226.926 188.017C228.932 186.418 230.851 184.966 232.326 183.916C233.064 183.39 233.685 182.969 234.148 182.681C234.38 182.536 234.565 182.43 234.7 182.362C234.757 182.333 234.799 182.314 234.828 182.302C234.838 182.304 234.851 182.307 234.866 182.312C234.918 182.327 234.987 182.352 235.076 182.391C235.253 182.469 235.48 182.59 235.757 182.757C236.309 183.089 237.02 183.579 237.859 184.201C239.535 185.444 241.687 187.191 244.029 189.197C248.711 193.21 254.123 198.235 257.954 202.292C276.58 222.018 289.963 247.668 295.302 273.865C295.365 274.172 295.426 274.472 295.486 274.764C296.058 277.568 296.491 279.692 296.757 281.338C297.053 283.165 297.129 284.337 296.988 285.159C296.856 285.931 296.531 286.398 295.934 286.825C295.349 287.243 294.531 287.603 293.371 288.115C293.258 288.165 293.14 288.217 293.02 288.27C261.819 302.071 221.852 303.541 187.261 292.142L187.104 292.616L187.261 292.142C186.302 291.826 185.402 291.531 184.556 291.255C181.642 290.302 179.379 289.562 177.628 288.891C175.355 288.021 174.047 287.301 173.318 286.469C172.626 285.677 172.409 284.721 172.525 283.194C172.615 281.991 172.905 280.51 173.283 278.572C173.394 278.004 173.513 277.397 173.637 276.747L173.145 276.653L173.637 276.747C180.14 242.477 199.929 209.531 226.926 188.017ZM234.865 182.289C234.865 182.289 234.864 182.289 234.861 182.29C234.864 182.289 234.865 182.289 234.865 182.289Z" fill="#EDEFF0" stroke="#EDEFF0"/>
<path d="M172.201 308.699C211.654 324.712 258.07 324.735 297.237 308.759L297.048 308.297L297.237 308.759C297.629 308.599 297.867 308.64 298.031 308.74C298.223 308.856 298.433 309.123 298.608 309.643C298.958 310.685 299.067 312.429 298.929 314.772C298.655 319.428 297.426 326.189 295.556 333.749C291.815 348.873 285.543 367.065 279.359 377.805L279.792 378.054L279.359 377.805C273.773 387.509 264.243 399.664 255.259 409.397C250.768 414.262 246.424 418.51 242.787 421.538C240.968 423.052 239.337 424.253 237.96 425.072C236.561 425.904 235.5 426.296 234.798 426.296C234.757 426.296 234.659 426.282 234.487 426.221C234.322 426.162 234.118 426.07 233.873 425.943C233.384 425.688 232.769 425.309 232.047 424.819C230.604 423.839 228.77 422.439 226.73 420.769C222.652 417.43 217.779 413.032 213.613 408.805C189.479 384.324 174.076 350.562 171.655 316.843L171.655 316.843C171.493 314.59 171.376 312.884 171.319 311.602C171.261 310.31 171.267 309.484 171.34 308.972C171.39 308.626 171.456 308.515 171.482 308.486C171.489 308.485 171.501 308.485 171.518 308.486C171.552 308.487 171.6 308.494 171.666 308.51C171.803 308.544 171.974 308.607 172.201 308.699ZM172.201 308.699L172.389 308.235M172.201 308.699L172.389 308.235M172.389 308.235C211.722 324.2 258.003 324.222 297.048 308.296L172.389 308.235ZM171.493 308.477C171.493 308.477 171.491 308.48 171.485 308.483C171.49 308.478 171.493 308.476 171.493 308.477Z" fill="#0098D7" stroke="#0098D7"/>
<path d="M221.039 1.86138C150.646 8.09938 92.4625 66.3194 86.5515 136.431C85.5385 148.448 84.9115 147.785 94.2025 144.523C136.994 129.495 183.044 132.263 224.153 152.332L235.403 157.825L246.653 152.345C287.705 132.35 329.745 129.609 374.656 143.998C386.227 147.705 385.262 148.375 384.316 137.296C378.195 65.6314 320.673 8.16538 248.739 1.85538C235.727 0.713377 233.976 0.714377 221.039 1.86138Z" fill="#B8B9BF" stroke="#B8B9BF"/>
</svg>
