<svg viewBox="0 0 2356 624" fill="none" xmlns="http://www.w3.org/2000/svg">
<path d="M88.963 178.889C88.3493 175.316 87.6933 171.6 87.505 170.633L87.505 170.633C87.4909 170.561 87.5002 170.43 87.6347 170.216C87.77 170.001 88.0064 169.744 88.3624 169.451C89.0732 168.866 90.1737 168.206 91.6117 167.497C94.4804 166.084 98.5933 164.525 103.351 163.015C112.866 159.997 124.887 157.2 134.538 156.166L134.485 155.669L134.538 156.166C150.473 154.459 170.697 156.084 187.862 160.457C193.436 161.878 200.623 164.288 206.351 166.502C209.215 167.609 211.704 168.663 213.437 169.515C214.307 169.943 214.969 170.312 215.391 170.604C215.529 170.699 215.63 170.778 215.7 170.842C215.695 170.848 215.69 170.854 215.684 170.86C215.565 170.991 215.393 171.169 215.171 171.389C214.73 171.829 214.106 172.423 213.345 173.13C211.824 174.544 209.764 176.401 207.533 178.358C194.883 189.454 182.698 205.15 173.139 221.684C163.581 238.215 156.625 255.626 154.467 270.162L154.961 270.236L154.467 270.162C154.221 271.818 154.026 272.986 153.743 273.742C153.603 274.114 153.46 274.335 153.322 274.46C153.2 274.57 153.059 274.627 152.848 274.624C152.617 274.619 152.297 274.54 151.854 274.339C151.415 274.14 150.887 273.837 150.247 273.42C148.964 272.587 147.284 271.336 145.047 269.65C116.817 248.379 94.7717 212.696 88.963 178.889ZM88.963 178.889L88.4702 178.974L88.963 178.889ZM215.822 170.975C215.821 170.975 215.818 170.97 215.814 170.961C215.82 170.97 215.823 170.975 215.822 170.975Z" fill="#B8B9BF" stroke="#B8B9BF"/>
<path d="M254.511 170.582C254.524 170.563 254.542 170.54 254.567 170.512C254.705 170.355 254.962 170.147 255.359 169.895C256.145 169.396 257.362 168.796 258.929 168.128C262.055 166.794 266.493 165.218 271.455 163.651C281.384 160.516 293.351 157.435 301.03 156.399C324.845 153.187 356.83 157.741 379.706 167.607L379.904 167.147L379.706 167.607L382.957 169.008L382.115 174.423C376.406 211.137 354.826 247.175 325.172 269.521C324.892 269.733 324.62 269.937 324.358 270.135C322.484 271.55 321.07 272.617 319.964 273.315C319.335 273.712 318.834 273.972 318.425 274.109C318.018 274.244 317.746 274.245 317.548 274.18C317.353 274.117 317.151 273.966 316.935 273.636C316.715 273.301 316.505 272.816 316.287 272.145C315.905 270.966 315.535 269.321 315.042 267.134C314.974 266.829 314.903 266.513 314.829 266.186C307.398 233.312 287.752 200.113 262.75 178.181C260.519 176.223 258.459 174.367 256.938 172.953C256.177 172.246 255.554 171.651 255.112 171.212C254.891 170.992 254.719 170.814 254.599 170.682C254.564 170.643 254.535 170.61 254.511 170.582ZM254.477 170.642C254.476 170.642 254.477 170.639 254.479 170.633C254.478 170.639 254.477 170.642 254.477 170.642Z" fill="#0075BA" stroke="#0075BA"/>
<path d="M59.4964 185.348L59.1973 184.947L59.4964 185.348C59.9348 185.021 60.3484 184.71 60.7391 184.417C62.2851 183.258 63.4712 182.368 64.4105 181.757C64.9977 181.375 65.4622 181.119 65.8375 180.976C66.214 180.833 66.4509 180.822 66.609 180.863C66.7541 180.9 66.9092 181 67.0823 181.259C67.2613 181.527 67.4345 181.929 67.6146 182.503C67.9026 183.422 68.1777 184.676 68.5389 186.323C68.6305 186.742 68.7278 187.185 68.8322 187.655L69.3203 187.546L68.8322 187.655C78.291 230.206 105.47 269.203 142.456 293.292L150.299 298.401L150.316 307.713C150.4 351.357 168.826 393.142 202.632 426.423L215.08 438.678L209.99 440.928L210.192 441.385L209.99 440.928C138.369 472.603 53.1072 442.782 17.3685 373.567C-16.2358 308.483 1.66866 228.521 59.4964 185.348Z" fill="#0098D7" stroke="#0098D7"/>
<path d="M327.14 293.292C364.126 269.203 391.306 230.206 400.764 187.655C400.869 187.185 400.966 186.742 401.058 186.323C401.419 184.676 401.694 183.422 401.982 182.503C402.162 181.929 402.335 181.527 402.514 181.259C402.687 181 402.843 180.9 402.988 180.863C403.146 180.822 403.383 180.833 403.759 180.976C404.134 181.119 404.599 181.375 405.186 181.757C406.125 182.368 407.312 183.258 408.858 184.418C409.248 184.711 409.662 185.021 410.1 185.348L410.399 184.947L410.1 185.348C467.917 228.513 485.826 308.496 452.228 373.567C416.489 442.782 331.228 472.603 259.607 440.928L259.404 441.385L259.607 440.928L254.516 438.678L266.964 426.423C300.719 393.193 319.298 351.029 319.298 307.584V298.4L327.14 293.292Z" fill="#0075BA" stroke="#0075BA"/>
<path d="M226.926 188.017L226.926 188.017C228.932 186.418 230.851 184.966 232.326 183.916C233.064 183.39 233.685 182.969 234.148 182.681C234.38 182.536 234.565 182.43 234.7 182.362C234.756 182.333 234.799 182.314 234.828 182.302C234.838 182.304 234.851 182.307 234.866 182.312C234.918 182.327 234.987 182.352 235.075 182.391C235.253 182.469 235.48 182.59 235.757 182.757C236.309 183.089 237.02 183.579 237.859 184.201C239.535 185.444 241.687 187.191 244.028 189.197C248.711 193.21 254.123 198.235 257.954 202.292C276.58 222.018 289.963 247.668 295.302 273.865C295.365 274.172 295.426 274.472 295.486 274.764C296.058 277.568 296.491 279.692 296.757 281.338C297.053 283.165 297.129 284.337 296.988 285.159C296.856 285.931 296.53 286.398 295.934 286.825C295.349 287.243 294.531 287.603 293.371 288.115C293.257 288.165 293.14 288.217 293.02 288.27C261.819 302.071 221.852 303.541 187.261 292.142L187.104 292.616L187.261 292.142C186.302 291.826 185.401 291.531 184.556 291.255C181.642 290.302 179.379 289.562 177.628 288.891C175.355 288.021 174.046 287.301 173.318 286.469C172.626 285.677 172.409 284.721 172.524 283.194C172.615 281.991 172.905 280.51 173.283 278.572C173.394 278.004 173.513 277.397 173.636 276.747L173.145 276.653L173.636 276.747C180.14 242.477 199.928 209.531 226.926 188.017ZM234.865 182.289C234.865 182.289 234.864 182.289 234.861 182.29C234.864 182.289 234.865 182.289 234.865 182.289Z" fill="#EDEFF0" stroke="#EDEFF0"/>
<path d="M172.201 308.699C211.654 324.712 258.07 324.735 297.237 308.759L297.048 308.297L297.237 308.759C297.629 308.599 297.867 308.64 298.031 308.74C298.223 308.856 298.433 309.123 298.608 309.643C298.958 310.685 299.067 312.429 298.929 314.772C298.655 319.428 297.426 326.189 295.556 333.749C291.815 348.873 285.543 367.065 279.359 377.805L279.792 378.054L279.359 377.805C273.773 387.509 264.243 399.664 255.259 409.397C250.768 414.262 246.424 418.51 242.787 421.538C240.968 423.052 239.337 424.253 237.96 425.072C236.561 425.904 235.5 426.296 234.798 426.296C234.757 426.296 234.659 426.282 234.487 426.221C234.322 426.162 234.118 426.07 233.873 425.943C233.384 425.688 232.769 425.309 232.047 424.819C230.604 423.839 228.77 422.439 226.73 420.769C222.652 417.43 217.779 413.032 213.613 408.805C189.479 384.324 174.076 350.562 171.655 316.843L171.655 316.843C171.493 314.59 171.376 312.884 171.319 311.602C171.261 310.31 171.267 309.484 171.34 308.972C171.39 308.626 171.456 308.515 171.482 308.486C171.489 308.485 171.501 308.485 171.518 308.486C171.552 308.487 171.6 308.494 171.666 308.51C171.803 308.544 171.974 308.607 172.201 308.699ZM172.201 308.699L172.389 308.235M172.201 308.699L172.389 308.235M172.389 308.235C211.722 324.2 258.003 324.222 297.048 308.296L172.389 308.235ZM171.493 308.477C171.493 308.477 171.491 308.48 171.485 308.483C171.49 308.478 171.493 308.476 171.493 308.477Z" fill="#0098D7" stroke="#0098D7"/>
<path d="M221.039 1.86138C150.646 8.09938 92.4625 66.3194 86.5515 136.431C85.5385 148.448 84.9115 147.785 94.2025 144.523C136.994 129.495 183.044 132.263 224.153 152.332L235.403 157.825L246.653 152.345C287.705 132.35 329.745 129.609 374.656 143.998C386.227 147.705 385.262 148.375 384.316 137.296C378.195 65.6314 320.673 8.16538 248.739 1.85538C235.727 0.713377 233.976 0.714377 221.039 1.86138Z" fill="#B8B9BF" stroke="#B8B9BF"/>
<path d="M627.83 144.88C645.31 144.88 660.337 146.873 672.91 150.86C685.637 154.847 695.603 159.063 702.81 163.51C710.17 167.957 714.54 170.87 715.92 172.25L695.68 204.68C693.38 202.687 689.317 199.85 683.49 196.17C677.663 192.337 670.38 188.963 661.64 186.05C652.9 182.983 642.933 181.45 631.74 181.45C614.413 181.45 600.69 184.977 590.57 192.03C580.603 198.93 575.62 208.743 575.62 221.47C575.62 230.057 578.227 237.647 583.44 244.24C588.807 250.68 596.32 256.583 605.98 261.95C615.64 267.317 626.91 272.837 639.79 278.51C650.37 282.957 660.72 288.017 670.84 293.69C681.113 299.363 690.39 306.033 698.67 313.7C707.103 321.367 713.773 330.26 718.68 340.38C723.74 350.5 726.27 362.153 726.27 375.34C726.27 388.373 723.587 400.103 718.22 410.53C713.007 420.957 705.57 429.85 695.91 437.21C686.403 444.417 675.287 449.937 662.56 453.77C649.833 457.603 636.11 459.52 621.39 459.52C602.837 459.52 586.047 457.22 571.02 452.62C556.147 448.02 544.11 443.19 534.91 438.13C525.863 433.07 520.65 429.927 519.27 428.7L540.66 394.89C542.5 396.423 545.873 398.723 550.78 401.79C555.687 404.703 561.743 407.77 568.95 410.99C576.157 414.21 584.283 416.97 593.33 419.27C602.377 421.417 612.037 422.49 622.31 422.49C642.857 422.49 658.42 417.89 669 408.69C679.58 399.49 684.87 387.683 684.87 373.27C684.87 362.23 681.497 352.723 674.75 344.75C668.003 336.777 659.033 329.647 647.84 323.36C636.647 317.073 624.303 311.017 610.81 305.19C597.01 298.903 584.36 292.003 572.86 284.49C561.36 276.977 552.083 268.007 545.03 257.58C538.13 247 534.68 234.273 534.68 219.4C534.68 204.68 538.82 191.723 547.1 180.53C555.533 169.337 566.803 160.597 580.91 154.31C595.17 148.023 610.81 144.88 627.83 144.88ZM776.557 150.4H955.957V186.05H815.427V284.49H953.197V319.22H815.427V418.35H955.957V454H776.557V150.4ZM1055.04 187.66L1057.57 188.12V454H1018.24V150.4H1073.67L1231.22 416.05L1228.69 416.51V150.4H1268.02V454H1212.13L1055.04 187.66ZM1421.76 150.4H1462.7L1574.94 454H1532.85L1506.63 380.86H1377.83L1351.15 454H1309.06L1421.76 150.4ZM1390.48 345.44H1494.21L1442.69 198.7H1442L1390.48 345.44ZM1748.52 420.65C1767.38 420.65 1783.71 418.043 1797.51 412.83C1811.47 407.617 1821.36 402.557 1827.18 397.65L1844.43 431.46C1837.53 437.593 1825.5 443.803 1808.32 450.09C1791.3 456.377 1770.83 459.52 1746.91 459.52C1724.53 459.52 1703.75 455.533 1684.58 447.56C1665.42 439.587 1648.63 428.47 1634.21 414.21C1619.95 399.95 1608.76 383.313 1600.63 364.3C1592.66 345.287 1588.67 324.74 1588.67 302.66C1588.67 280.58 1592.66 259.957 1600.63 240.79C1608.61 221.623 1619.72 204.91 1633.98 190.65C1648.4 176.237 1665.19 165.043 1684.35 157.07C1703.67 148.943 1724.53 144.88 1746.91 144.88C1770.83 144.88 1791.3 148.023 1808.32 154.31C1825.5 160.597 1837.53 166.807 1844.43 172.94L1827.18 206.75C1821.36 201.69 1811.47 196.63 1797.51 191.57C1783.71 186.357 1767.38 183.75 1748.52 183.75C1731.35 183.75 1715.63 186.663 1701.37 192.49C1687.11 198.317 1674.69 206.597 1664.11 217.33C1653.69 227.91 1645.56 240.407 1639.73 254.82C1634.06 269.233 1631.22 284.95 1631.22 301.97C1631.22 319.143 1634.06 335.013 1639.73 349.58C1645.56 363.993 1653.69 376.567 1664.11 387.3C1674.69 397.88 1687.11 406.083 1701.37 411.91C1715.63 417.737 1731.35 420.65 1748.52 420.65ZM1968.1 344.75L1866.21 150.4H1913.59L1987.88 298.98L2061.94 150.4H2109.32L2007.66 344.75V454H1968.1V344.75ZM2215.97 186.05H2134.09V150.4H2337.41V186.05H2255.53V454H2215.97V186.05Z" fill="#5B5A5D"/>
<path d="M27.0175 533.128C30.9228 533.128 34.3063 533.582 37.168 534.491C40.0633 535.367 42.3527 536.309 44.036 537.319C45.7193 538.296 46.7293 538.935 47.066 539.238L41.7635 547.874C41.2585 547.436 40.3495 546.83 39.0365 546.056C37.7572 545.248 36.1748 544.524 34.2895 543.884C32.4378 543.245 30.3673 542.925 28.078 542.925C24.644 542.925 21.917 543.598 19.897 544.945C17.877 546.258 16.867 548.177 16.867 550.702C16.867 552.385 17.4057 553.867 18.483 555.146C19.5603 556.425 21.0922 557.62 23.0785 558.731C25.0985 559.842 27.5057 560.97 30.3 562.115C32.6567 563.091 34.946 564.202 37.168 565.448C39.4237 566.694 41.4437 568.158 43.228 569.841C45.0123 571.525 46.4263 573.477 47.47 575.699C48.5473 577.921 49.086 580.48 49.086 583.375C49.086 586.405 48.4632 589.099 47.2175 591.455C45.9718 593.778 44.2548 595.748 42.0665 597.364C39.8782 598.946 37.3532 600.158 34.4915 601C31.6635 601.808 28.6335 602.212 25.4015 602.212C21.1595 602.212 17.3383 601.707 13.938 600.697C10.5713 599.653 7.84433 598.576 5.757 597.465C3.66967 596.32 2.45767 595.58 2.121 595.243L7.7265 586.203C8.1305 586.54 8.87117 587.045 9.9485 587.718C11.0595 588.358 12.423 589.048 14.039 589.789C15.655 590.496 17.4393 591.102 19.392 591.607C21.3783 592.078 23.432 592.314 25.553 592.314C29.6267 592.314 32.7072 591.439 34.7945 589.688C36.8818 587.904 37.9255 585.614 37.9255 582.82C37.9255 580.699 37.2522 578.864 35.9055 577.315C34.5925 575.733 32.7745 574.302 30.4515 573.023C28.1622 571.744 25.553 570.481 22.624 569.235C19.6277 567.922 16.8502 566.441 14.2915 564.791C11.7665 563.142 9.72967 561.139 8.181 558.782C6.63233 556.392 5.858 553.496 5.858 550.096C5.858 546.696 6.8175 543.733 8.7365 541.208C10.6892 538.649 13.2647 536.663 16.463 535.249C19.6613 533.835 23.1795 533.128 27.0175 533.128ZM66.7697 582.82C66.837 585.008 67.3588 586.978 68.3352 588.728C69.3115 590.479 70.7423 591.859 72.6277 592.869C74.5467 593.846 76.8865 594.334 79.6472 594.334C82.0375 594.334 84.0912 594.014 85.8082 593.374C87.5588 592.701 89.0065 591.91 90.1512 591.001C91.2958 590.058 92.1375 589.183 92.6762 588.375L97.4737 594.889C96.43 596.303 95.117 597.566 93.5347 598.677C91.9523 599.788 89.9828 600.646 87.6262 601.253C85.3032 601.892 82.4247 602.212 78.9907 602.212C74.4793 602.212 70.5572 601.286 67.2242 599.434C63.8912 597.583 61.2988 594.974 59.4472 591.607C57.6292 588.24 56.7202 584.301 56.7202 579.79C56.7202 575.75 57.5618 572.114 59.2452 568.882C60.9285 565.616 63.3693 563.041 66.5677 561.155C69.7997 559.27 73.6713 558.327 78.1827 558.327C82.391 558.327 86.0438 559.169 89.1412 560.852C92.2385 562.536 94.6288 564.96 96.3122 568.124C98.0292 571.255 98.8877 575.043 98.8877 579.487C98.8877 579.756 98.8708 580.312 98.8372 581.153C98.8372 581.995 98.8035 582.551 98.7362 582.82H66.7697ZM88.7877 574.942C88.754 573.865 88.3837 572.636 87.6767 571.255C87.0033 569.875 85.9092 568.68 84.3942 567.67C82.8792 566.626 80.8592 566.104 78.3342 566.104C75.7418 566.104 73.6377 566.609 72.0217 567.619C70.4057 568.596 69.2105 569.774 68.4362 571.154C67.6618 572.501 67.2073 573.764 67.0727 574.942H88.7877ZM128.523 593.475C130.914 593.475 132.849 593.088 134.331 592.314C135.846 591.506 136.822 590.917 137.26 590.546L142.36 598.121C141.956 598.458 141.115 598.963 139.835 599.636C138.556 600.276 136.923 600.865 134.937 601.404C132.984 601.943 130.762 602.212 128.271 602.212C124.163 602.212 120.426 601.353 117.06 599.636C113.727 597.886 111.05 595.378 109.03 592.112C107.044 588.813 106.051 584.857 106.051 580.244C106.051 575.598 107.044 571.643 109.03 568.377C111.05 565.111 113.727 562.62 117.06 560.903C120.426 559.186 124.163 558.327 128.271 558.327C130.728 558.327 132.917 558.614 134.836 559.186C136.788 559.725 138.404 560.347 139.684 561.054C140.963 561.761 141.822 562.317 142.259 562.721L137.058 570.296C136.822 570.06 136.334 569.69 135.593 569.185C134.886 568.646 133.944 568.158 132.765 567.72C131.587 567.283 130.173 567.064 128.523 567.064C126.503 567.064 124.567 567.603 122.716 568.68C120.864 569.757 119.349 571.289 118.171 573.275C116.992 575.228 116.403 577.551 116.403 580.244C116.403 582.938 116.992 585.278 118.171 587.264C119.349 589.25 120.864 590.782 122.716 591.859C124.567 592.937 126.503 593.475 128.523 593.475ZM160.537 601H149.781V559.539H160.537V566.458H160.285C160.52 565.616 161.16 564.573 162.204 563.327C163.281 562.048 164.762 560.903 166.648 559.893C168.533 558.849 170.805 558.327 173.465 558.327C175.384 558.327 177.101 558.597 178.616 559.135C180.131 559.674 181.208 560.213 181.848 560.751L177.505 569.639C177.067 569.101 176.243 568.579 175.031 568.074C173.852 567.535 172.388 567.266 170.637 567.266C168.449 567.266 166.597 567.906 165.082 569.185C163.601 570.464 162.473 571.996 161.699 573.78C160.924 575.565 160.537 577.231 160.537 578.78V601ZM193.513 582.82C193.58 585.008 194.102 586.978 195.078 588.728C196.055 590.479 197.486 591.859 199.371 592.869C201.29 593.846 203.63 594.334 206.39 594.334C208.781 594.334 210.834 594.014 212.551 593.374C214.302 592.701 215.75 591.91 216.894 591.001C218.039 590.058 218.881 589.183 219.419 588.375L224.217 594.889C223.173 596.303 221.86 597.566 220.278 598.677C218.696 599.788 216.726 600.646 214.369 601.253C212.046 601.892 209.168 602.212 205.734 602.212C201.223 602.212 197.3 601.286 193.967 599.434C190.634 597.583 188.042 594.974 186.19 591.607C184.372 588.24 183.463 584.301 183.463 579.79C183.463 575.75 184.305 572.114 185.988 568.882C187.672 565.616 190.113 563.041 193.311 561.155C196.543 559.27 200.415 558.327 204.926 558.327C209.134 558.327 212.787 559.169 215.884 560.852C218.982 562.536 221.372 564.96 223.055 568.124C224.772 571.255 225.631 575.043 225.631 579.487C225.631 579.756 225.614 580.312 225.58 581.153C225.58 581.995 225.547 582.551 225.479 582.82H193.513ZM215.531 574.942C215.497 573.865 215.127 572.636 214.42 571.255C213.747 569.875 212.652 568.68 211.137 567.67C209.622 566.626 207.602 566.104 205.077 566.104C202.485 566.104 200.381 566.609 198.765 567.619C197.149 568.596 195.954 569.774 195.179 571.154C194.405 572.501 193.951 573.764 193.816 574.942H215.531ZM231.279 559.539H239.056V542.521H249.762V559.539H260.013V568.629H249.762V586.355C249.762 588.577 250.132 590.243 250.873 591.354C251.647 592.465 252.741 593.021 254.155 593.021C255.334 593.021 256.26 592.802 256.933 592.364C257.64 591.927 258.061 591.624 258.195 591.455L262.185 599.283C261.983 599.485 261.394 599.822 260.417 600.293C259.441 600.764 258.179 601.202 256.63 601.606C255.081 602.01 253.314 602.212 251.327 602.212C247.826 602.212 244.897 601.168 242.54 599.081C240.217 596.994 239.056 593.728 239.056 589.284V568.629H231.279V559.539ZM302.163 601V593.324C301.893 594.132 301.119 595.243 299.84 596.657C298.594 598.071 296.877 599.35 294.689 600.495C292.534 601.64 289.975 602.212 287.013 602.212C283.141 602.212 279.657 601.286 276.559 599.434C273.462 597.583 271.021 595.007 269.237 591.708C267.452 588.409 266.56 584.604 266.56 580.295C266.56 575.986 267.452 572.181 269.237 568.882C271.021 565.583 273.462 563.007 276.559 561.155C279.657 559.27 283.141 558.327 287.013 558.327C289.908 558.327 292.416 558.832 294.537 559.842C296.658 560.852 298.358 562.014 299.638 563.327C300.951 564.64 301.759 565.785 302.062 566.761V559.539H312.768V601H302.163ZM277.216 580.295C277.216 582.955 277.805 585.278 278.983 587.264C280.162 589.25 281.693 590.782 283.579 591.859C285.498 592.937 287.551 593.475 289.74 593.475C292.096 593.475 294.184 592.92 296.002 591.809C297.853 590.698 299.301 589.166 300.345 587.213C301.422 585.227 301.961 582.921 301.961 580.295C301.961 577.669 301.422 575.38 300.345 573.427C299.301 571.441 297.853 569.892 296.002 568.781C294.184 567.636 292.096 567.064 289.74 567.064C287.551 567.064 285.498 567.619 283.579 568.73C281.693 569.808 280.162 571.34 278.983 573.326C277.805 575.312 277.216 577.635 277.216 580.295ZM334.131 601H323.374V559.539H334.131V566.458H333.878C334.114 565.616 334.754 564.573 335.797 563.327C336.875 562.048 338.356 560.903 340.241 559.893C342.127 558.849 344.399 558.327 347.059 558.327C348.978 558.327 350.695 558.597 352.21 559.135C353.725 559.674 354.802 560.213 355.442 560.751L351.099 569.639C350.661 569.101 349.836 568.579 348.624 568.074C347.446 567.535 345.982 567.266 344.231 567.266C342.043 567.266 340.191 567.906 338.676 569.185C337.195 570.464 336.067 571.996 335.292 573.78C334.518 575.565 334.131 577.231 334.131 578.78V601ZM359.861 601V559.539H369.961V601H359.861ZM358.599 554.186L355.064 549.389L370.719 536.259L376.476 543.43L358.599 554.186ZM413.717 601V593.324C413.447 594.132 412.673 595.243 411.394 596.657C410.148 598.071 408.431 599.35 406.243 600.495C404.088 601.64 401.529 602.212 398.567 602.212C394.695 602.212 391.21 601.286 388.113 599.434C385.016 597.583 382.575 595.007 380.791 591.708C379.006 588.409 378.114 584.604 378.114 580.295C378.114 575.986 379.006 572.181 380.791 568.882C382.575 565.583 385.016 563.007 388.113 561.155C391.21 559.27 394.695 558.327 398.567 558.327C401.462 558.327 403.97 558.832 406.091 559.842C408.212 560.852 409.912 562.014 411.192 563.327C412.505 564.64 413.313 565.785 413.616 566.761V559.539H424.322V601H413.717ZM388.77 580.295C388.77 582.955 389.359 585.278 390.537 587.264C391.715 589.25 393.247 590.782 395.133 591.859C397.052 592.937 399.105 593.475 401.294 593.475C403.65 593.475 405.738 592.92 407.556 591.809C409.407 590.698 410.855 589.166 411.899 587.213C412.976 585.227 413.515 582.921 413.515 580.295C413.515 577.669 412.976 575.38 411.899 573.427C410.855 571.441 409.407 569.892 407.556 568.781C405.738 567.636 403.65 567.064 401.294 567.064C399.105 567.064 397.052 567.619 395.133 568.73C393.247 569.808 391.715 571.34 390.537 573.326C389.359 575.312 388.77 577.635 388.77 580.295ZM471.127 544.288L471.834 544.389V601H461.229V534.34H476.026L508.245 590.9L507.588 591.051V534.34H518.143V601H503.296L471.127 544.288ZM563.934 601V593.324C563.665 594.132 562.891 595.243 561.611 596.657C560.366 598.071 558.649 599.35 556.46 600.495C554.306 601.64 551.747 602.212 548.784 602.212C544.913 602.212 541.428 601.286 538.331 599.434C535.233 597.583 532.793 595.007 531.008 591.708C529.224 588.409 528.332 584.604 528.332 580.295C528.332 575.986 529.224 572.181 531.008 568.882C532.793 565.583 535.233 563.007 538.331 561.155C541.428 559.27 544.913 558.327 548.784 558.327C551.68 558.327 554.188 558.832 556.309 559.842C558.43 560.852 560.13 562.014 561.409 563.327C562.722 564.64 563.53 565.785 563.833 566.761V559.539H574.539V601H563.934ZM538.987 580.295C538.987 582.955 539.576 585.278 540.755 587.264C541.933 589.25 543.465 590.782 545.35 591.859C547.269 592.937 549.323 593.475 551.511 593.475C553.868 593.475 555.955 592.92 557.773 591.809C559.625 590.698 561.073 589.166 562.116 587.213C563.194 585.227 563.732 582.921 563.732 580.295C563.732 577.669 563.194 575.38 562.116 573.427C561.073 571.441 559.625 569.892 557.773 568.781C555.955 567.636 553.868 567.064 551.511 567.064C549.323 567.064 547.269 567.619 545.35 568.73C543.465 569.808 541.933 571.34 540.755 573.326C539.576 575.312 538.987 577.635 538.987 580.295ZM606.103 593.475C608.494 593.475 610.43 593.088 611.911 592.314C613.426 591.506 614.402 590.917 614.84 590.546L619.94 598.121C619.536 598.458 618.695 598.963 617.415 599.636C616.136 600.276 614.503 600.865 612.517 601.404C610.564 601.943 608.342 602.212 605.851 602.212C601.744 602.212 598.007 601.353 594.64 599.636C591.307 597.886 588.63 595.378 586.61 592.112C584.624 588.813 583.631 584.857 583.631 580.244C583.631 575.598 584.624 571.643 586.61 568.377C588.63 565.111 591.307 562.62 594.64 560.903C598.007 559.186 601.744 558.327 605.851 558.327C608.309 558.327 610.497 558.614 612.416 559.186C614.369 559.725 615.985 560.347 617.264 561.054C618.543 561.761 619.402 562.317 619.839 562.721L614.638 570.296C614.402 570.06 613.914 569.69 613.173 569.185C612.466 568.646 611.524 568.158 610.345 567.72C609.167 567.283 607.753 567.064 606.103 567.064C604.083 567.064 602.148 567.603 600.296 568.68C598.444 569.757 596.929 571.289 595.751 573.275C594.573 575.228 593.983 577.551 593.983 580.244C593.983 582.938 594.573 585.278 595.751 587.264C596.929 589.25 598.444 590.782 600.296 591.859C602.148 592.937 604.083 593.475 606.103 593.475ZM628.476 601V559.539H639.233V601H628.476ZM633.981 547.116C632.163 547.116 630.597 546.46 629.284 545.147C628.005 543.834 627.365 542.268 627.365 540.45C627.365 538.632 628.005 537.067 629.284 535.754C630.597 534.407 632.163 533.734 633.981 533.734C635.193 533.734 636.304 534.054 637.314 534.693C638.358 535.299 639.182 536.107 639.788 537.117C640.428 538.094 640.748 539.205 640.748 540.45C640.748 542.268 640.091 543.834 638.778 545.147C637.465 546.46 635.866 547.116 633.981 547.116ZM671.579 602.212C667.236 602.212 663.364 601.269 659.964 599.384C656.597 597.465 653.954 594.873 652.035 591.607C650.116 588.308 649.157 584.571 649.157 580.396C649.157 576.221 650.116 572.467 652.035 569.134C653.954 565.801 656.597 563.175 659.964 561.256C663.364 559.304 667.236 558.327 671.579 558.327C675.922 558.327 679.76 559.304 683.093 561.256C686.426 563.175 689.035 565.801 690.92 569.134C692.839 572.467 693.799 576.221 693.799 580.396C693.799 584.571 692.839 588.308 690.92 591.607C689.035 594.873 686.426 597.465 683.093 599.384C679.76 601.269 675.922 602.212 671.579 602.212ZM671.579 593.122C674.003 593.122 676.107 592.566 677.891 591.455C679.676 590.344 681.056 588.829 682.032 586.91C683.009 584.991 683.497 582.803 683.497 580.345C683.497 577.888 683.009 575.699 682.032 573.78C681.056 571.828 679.676 570.279 677.891 569.134C676.107 567.99 674.003 567.417 671.579 567.417C669.155 567.417 667.034 567.99 665.216 569.134C663.432 570.279 662.034 571.828 661.024 573.78C660.048 575.699 659.56 577.888 659.56 580.345C659.56 582.803 660.048 584.991 661.024 586.91C662.034 588.829 663.432 590.344 665.216 591.455C667.034 592.566 669.155 593.122 671.579 593.122ZM727.721 558.327C730.515 558.327 733.225 558.9 735.851 560.044C738.477 561.189 740.632 563.024 742.315 565.549C744.032 568.04 744.891 571.289 744.891 575.295V601H734.033V577.265C734.033 573.528 733.141 570.784 731.357 569.033C729.606 567.249 727.334 566.357 724.539 566.357C722.688 566.357 720.92 566.879 719.237 567.922C717.553 568.966 716.173 570.38 715.096 572.164C714.052 573.949 713.53 576.002 713.53 578.325V601H702.723V559.539H713.53V566.508C713.833 565.364 714.641 564.169 715.954 562.923C717.301 561.644 719.001 560.566 721.055 559.691C723.108 558.782 725.33 558.327 727.721 558.327ZM788.62 601V593.324C788.351 594.132 787.576 595.243 786.297 596.657C785.051 598.071 783.334 599.35 781.146 600.495C778.991 601.64 776.433 602.212 773.47 602.212C769.598 602.212 766.114 601.286 763.016 599.434C759.919 597.583 757.478 595.007 755.694 591.708C753.91 588.409 753.017 584.604 753.017 580.295C753.017 575.986 753.91 572.181 755.694 568.882C757.478 565.583 759.919 563.007 763.016 561.155C766.114 559.27 769.598 558.327 773.47 558.327C776.365 558.327 778.873 558.832 780.994 559.842C783.115 560.852 784.816 562.014 786.095 563.327C787.408 564.64 788.216 565.785 788.519 566.761V559.539H799.225V601H788.62ZM763.673 580.295C763.673 582.955 764.262 585.278 765.44 587.264C766.619 589.25 768.151 590.782 770.036 591.859C771.955 592.937 774.009 593.475 776.197 593.475C778.554 593.475 780.641 592.92 782.459 591.809C784.311 590.698 785.758 589.166 786.802 587.213C787.879 585.227 788.418 582.921 788.418 580.295C788.418 577.669 787.879 575.38 786.802 573.427C785.758 571.441 784.311 569.892 782.459 568.781C780.641 567.636 778.554 567.064 776.197 567.064C774.009 567.064 771.955 567.619 770.036 568.73C768.151 569.808 766.619 571.34 765.44 573.326C764.262 575.312 763.673 577.635 763.673 580.295ZM821.345 601H810.488V531.512H821.345V601ZM876.895 602.212C872.989 602.212 869.538 601.286 866.542 599.434C863.546 597.583 861.189 595.007 859.472 591.708C857.789 588.409 856.947 584.604 856.947 580.295C856.947 575.986 857.789 572.181 859.472 568.882C861.189 565.583 863.546 563.007 866.542 561.155C869.538 559.27 872.989 558.327 876.895 558.327C879.79 558.327 882.365 558.832 884.621 559.842C886.877 560.819 888.678 561.963 890.025 563.276C891.371 564.589 892.162 565.751 892.398 566.761V531.512H903.205V601H892.55V593.324C892.078 594.502 891.119 595.782 889.671 597.162C888.223 598.542 886.389 599.737 884.167 600.747C881.978 601.724 879.554 602.212 876.895 602.212ZM879.672 593.475C882.029 593.475 884.167 592.92 886.086 591.809C888.005 590.698 889.536 589.166 890.681 587.213C891.826 585.227 892.398 582.921 892.398 580.295C892.398 577.669 891.826 575.38 890.681 573.427C889.536 571.441 888.005 569.892 886.086 568.781C884.167 567.636 882.029 567.064 879.672 567.064C877.517 567.064 875.514 567.619 873.663 568.73C871.845 569.808 870.38 571.34 869.269 573.326C868.158 575.312 867.603 577.635 867.603 580.295C867.603 582.955 868.158 585.278 869.269 587.264C870.38 589.25 871.845 590.782 873.663 591.859C875.514 592.937 877.517 593.475 879.672 593.475ZM920.141 582.82C920.208 585.008 920.73 586.978 921.706 588.728C922.683 590.479 924.113 591.859 925.999 592.869C927.918 593.846 930.258 594.334 933.018 594.334C935.409 594.334 937.462 594.014 939.179 593.374C940.93 592.701 942.378 591.91 943.522 591.001C944.667 590.058 945.509 589.183 946.047 588.375L950.845 594.889C949.801 596.303 948.488 597.566 946.906 598.677C945.323 599.788 943.354 600.646 940.997 601.253C938.674 601.892 935.796 602.212 932.362 602.212C927.85 602.212 923.928 601.286 920.595 599.434C917.262 597.583 914.67 594.974 912.818 591.607C911 588.24 910.091 584.301 910.091 579.79C910.091 575.75 910.933 572.114 912.616 568.882C914.3 565.616 916.74 563.041 919.939 561.155C923.171 559.27 927.042 558.327 931.554 558.327C935.762 558.327 939.415 559.169 942.512 560.852C945.61 562.536 948 564.96 949.683 568.124C951.4 571.255 952.259 575.043 952.259 579.487C952.259 579.756 952.242 580.312 952.208 581.153C952.208 581.995 952.175 582.551 952.107 582.82H920.141ZM942.159 574.942C942.125 573.865 941.755 572.636 941.048 571.255C940.374 569.875 939.28 568.68 937.765 567.67C936.25 566.626 934.23 566.104 931.705 566.104C929.113 566.104 927.009 566.609 925.393 567.619C923.777 568.596 922.582 569.774 921.807 571.154C921.033 572.501 920.578 573.764 920.444 574.942H942.159ZM1020.47 591.708C1024.3 591.708 1027.65 591.186 1030.52 590.142C1033.41 589.065 1035.52 588.005 1036.83 586.961L1041.37 596.051C1039.86 597.398 1037.22 598.761 1033.45 600.141C1029.67 601.522 1025.16 602.212 1019.91 602.212C1015 602.212 1010.42 601.337 1006.18 599.586C1001.93 597.835 998.213 595.411 995.015 592.314C991.817 589.183 989.325 585.53 987.541 581.355C985.757 577.181 984.864 572.653 984.864 567.771C984.864 562.889 985.757 558.344 987.541 554.136C989.325 549.928 991.8 546.258 994.964 543.127C998.163 539.996 1001.88 537.555 1006.12 535.804C1010.4 534.02 1015 533.128 1019.91 533.128C1025.16 533.128 1029.67 533.818 1033.45 535.198C1037.22 536.579 1039.86 537.942 1041.37 539.289L1036.83 548.379C1035.52 547.335 1033.41 546.292 1030.52 545.248C1027.65 544.171 1024.3 543.632 1020.47 543.632C1016.83 543.632 1013.53 544.238 1010.57 545.45C1007.61 546.662 1005.06 548.362 1002.94 550.55C1000.82 552.739 999.19 555.297 998.045 558.226C996.9 561.122 996.328 564.253 996.328 567.619C996.328 571.02 996.9 574.184 998.045 577.113C999.19 580.042 1000.82 582.601 1002.94 584.789C1005.06 586.978 1007.61 588.678 1010.57 589.89C1013.53 591.102 1016.83 591.708 1020.47 591.708ZM1052.1 601V559.539H1062.86V601H1052.1ZM1057.61 547.116C1055.79 547.116 1054.23 546.46 1052.91 545.147C1051.63 543.834 1050.99 542.268 1050.99 540.45C1050.99 538.632 1051.63 537.067 1052.91 535.754C1054.23 534.407 1055.79 533.734 1057.61 533.734C1058.82 533.734 1059.93 534.054 1060.94 534.693C1061.99 535.299 1062.81 536.107 1063.42 537.117C1064.06 538.094 1064.38 539.205 1064.38 540.45C1064.38 542.268 1063.72 543.834 1062.41 545.147C1061.09 546.46 1059.49 547.116 1057.61 547.116ZM1082.88 582.82C1082.95 585.008 1083.47 586.978 1084.45 588.728C1085.43 590.479 1086.86 591.859 1088.74 592.869C1090.66 593.846 1093 594.334 1095.76 594.334C1098.15 594.334 1100.21 594.014 1101.92 593.374C1103.67 592.701 1105.12 591.91 1106.27 591.001C1107.41 590.058 1108.25 589.183 1108.79 588.375L1113.59 594.889C1112.55 596.303 1111.23 597.566 1109.65 598.677C1108.07 599.788 1106.1 600.646 1103.74 601.253C1101.42 601.892 1098.54 602.212 1095.11 602.212C1090.59 602.212 1086.67 601.286 1083.34 599.434C1080.01 597.583 1077.41 594.974 1075.56 591.607C1073.74 588.24 1072.84 584.301 1072.84 579.79C1072.84 575.75 1073.68 572.114 1075.36 568.882C1077.04 565.616 1079.48 563.041 1082.68 561.155C1085.91 559.27 1089.79 558.327 1094.3 558.327C1098.51 558.327 1102.16 559.169 1105.26 560.852C1108.35 562.536 1110.74 564.96 1112.43 568.124C1114.14 571.255 1115 575.043 1115 579.487C1115 579.756 1114.99 580.312 1114.95 581.153C1114.95 581.995 1114.92 582.551 1114.85 582.82H1082.88ZM1104.9 574.942C1104.87 573.865 1104.5 572.636 1103.79 571.255C1103.12 569.875 1102.02 568.68 1100.51 567.67C1098.99 566.626 1096.97 566.104 1094.45 566.104C1091.86 566.104 1089.75 566.609 1088.14 567.619C1086.52 568.596 1085.33 569.774 1084.55 571.154C1083.78 572.501 1083.32 573.764 1083.19 574.942H1104.9ZM1148.98 558.327C1151.78 558.327 1154.49 558.9 1157.11 560.044C1159.74 561.189 1161.89 563.024 1163.58 565.549C1165.29 568.04 1166.15 571.289 1166.15 575.295V601H1155.29V577.265C1155.29 573.528 1154.4 570.784 1152.62 569.033C1150.87 567.249 1148.59 566.357 1145.8 566.357C1143.95 566.357 1142.18 566.879 1140.5 567.922C1138.81 568.966 1137.43 570.38 1136.36 572.164C1135.31 573.949 1134.79 576.002 1134.79 578.325V601H1123.98V559.539H1134.79V566.508C1135.09 565.364 1135.9 564.169 1137.22 562.923C1138.56 561.644 1140.26 560.566 1142.32 559.691C1144.37 558.782 1146.59 558.327 1148.98 558.327ZM1197.41 593.475C1199.8 593.475 1201.73 593.088 1203.21 592.314C1204.73 591.506 1205.71 590.917 1206.14 590.546L1211.24 598.121C1210.84 598.458 1210 598.963 1208.72 599.636C1207.44 600.276 1205.81 600.865 1203.82 601.404C1201.87 601.943 1199.65 602.212 1197.15 602.212C1193.05 602.212 1189.31 601.353 1185.94 599.636C1182.61 597.886 1179.93 595.378 1177.91 592.112C1175.93 588.813 1174.93 584.857 1174.93 580.244C1174.93 575.598 1175.93 571.643 1177.91 568.377C1179.93 565.111 1182.61 562.62 1185.94 560.903C1189.31 559.186 1193.05 558.327 1197.15 558.327C1199.61 558.327 1201.8 558.614 1203.72 559.186C1205.67 559.725 1207.29 560.347 1208.57 561.054C1209.85 561.761 1210.71 562.317 1211.14 562.721L1205.94 570.296C1205.71 570.06 1205.22 569.69 1204.48 569.185C1203.77 568.646 1202.83 568.158 1201.65 567.72C1200.47 567.283 1199.06 567.064 1197.41 567.064C1195.39 567.064 1193.45 567.603 1191.6 568.68C1189.75 569.757 1188.23 571.289 1187.05 573.275C1185.88 575.228 1185.29 577.551 1185.29 580.244C1185.29 582.938 1185.88 585.278 1187.05 587.264C1188.23 589.25 1189.75 590.782 1191.6 591.859C1193.45 592.937 1195.39 593.475 1197.41 593.475ZM1219.78 601V559.539H1230.54V601H1219.78ZM1225.28 547.116C1223.47 547.116 1221.9 546.46 1220.59 545.147C1219.31 543.834 1218.67 542.268 1218.67 540.45C1218.67 538.632 1219.31 537.067 1220.59 535.754C1221.9 534.407 1223.47 533.734 1225.28 533.734C1226.5 533.734 1227.61 534.054 1228.62 534.693C1229.66 535.299 1230.49 536.107 1231.09 537.117C1231.73 538.094 1232.05 539.205 1232.05 540.45C1232.05 542.268 1231.4 543.834 1230.08 545.147C1228.77 546.46 1227.17 547.116 1225.28 547.116ZM1276.06 601V593.324C1275.79 594.132 1275.02 595.243 1273.74 596.657C1272.49 598.071 1270.78 599.35 1268.59 600.495C1266.43 601.64 1263.88 602.212 1260.91 602.212C1257.04 602.212 1253.56 601.286 1250.46 599.434C1247.36 597.583 1244.92 595.007 1243.14 591.708C1241.35 588.409 1240.46 584.604 1240.46 580.295C1240.46 575.986 1241.35 572.181 1243.14 568.882C1244.92 565.583 1247.36 563.007 1250.46 561.155C1253.56 559.27 1257.04 558.327 1260.91 558.327C1263.81 558.327 1266.32 558.832 1268.44 559.842C1270.56 560.852 1272.26 562.014 1273.54 563.327C1274.85 564.64 1275.66 565.785 1275.96 566.761V559.539H1286.67V601H1276.06ZM1251.12 580.295C1251.12 582.955 1251.71 585.278 1252.88 587.264C1254.06 589.25 1255.59 590.782 1257.48 591.859C1259.4 592.937 1261.45 593.475 1263.64 593.475C1266 593.475 1268.08 592.92 1269.9 591.809C1271.75 590.698 1273.2 589.166 1274.25 587.213C1275.32 585.227 1275.86 582.921 1275.86 580.295C1275.86 577.669 1275.32 575.38 1274.25 573.427C1273.2 571.441 1271.75 569.892 1269.9 568.781C1268.08 567.636 1266 567.064 1263.64 567.064C1261.45 567.064 1259.4 567.619 1257.48 568.73C1255.59 569.808 1254.06 571.34 1252.88 573.326C1251.71 575.312 1251.12 577.635 1251.12 580.295ZM1306.11 586.91C1308.3 586.91 1310.19 587.702 1311.77 589.284C1313.35 590.833 1314.14 592.97 1314.14 595.697C1314.14 598.357 1313.59 600.899 1312.48 603.323C1311.4 605.747 1309.97 607.919 1308.18 609.838C1306.43 611.79 1304.53 613.322 1302.48 614.433L1298.89 610.696C1299.97 610.157 1301.11 609.434 1302.32 608.525C1303.57 607.616 1304.7 606.555 1305.71 605.343C1306.72 604.165 1307.39 602.885 1307.73 601.505C1307.02 601.875 1306.15 602.061 1305.1 602.061C1303.28 602.061 1301.69 601.37 1300.3 599.99C1298.96 598.61 1298.28 596.859 1298.28 594.738C1298.28 593.257 1298.62 591.927 1299.29 590.748C1300 589.57 1300.94 588.644 1302.12 587.971C1303.33 587.264 1304.66 586.91 1306.11 586.91ZM1365.22 543.834H1347.89V534.34H1393.19V543.834H1375.87V601H1365.22V543.834ZM1401.47 582.82C1401.54 585.008 1402.06 586.978 1403.03 588.728C1404.01 590.479 1405.44 591.859 1407.33 592.869C1409.25 593.846 1411.59 594.334 1414.35 594.334C1416.74 594.334 1418.79 594.014 1420.51 593.374C1422.26 592.701 1423.71 591.91 1424.85 591.001C1426 590.058 1426.84 589.183 1427.38 588.375L1432.17 594.889C1431.13 596.303 1429.82 597.566 1428.23 598.677C1426.65 599.788 1424.68 600.646 1422.33 601.253C1420 601.892 1417.12 602.212 1413.69 602.212C1409.18 602.212 1405.26 601.286 1401.92 599.434C1398.59 597.583 1396 594.974 1394.15 591.607C1392.33 588.24 1391.42 584.301 1391.42 579.79C1391.42 575.75 1392.26 572.114 1393.94 568.882C1395.63 565.616 1398.07 563.041 1401.27 561.155C1404.5 559.27 1408.37 558.327 1412.88 558.327C1417.09 558.327 1420.74 559.169 1423.84 560.852C1426.94 562.536 1429.33 564.96 1431.01 568.124C1432.73 571.255 1433.59 575.043 1433.59 579.487C1433.59 579.756 1433.57 580.312 1433.54 581.153C1433.54 581.995 1433.5 582.551 1433.44 582.82H1401.47ZM1423.49 574.942C1423.45 573.865 1423.08 572.636 1422.38 571.255C1421.7 569.875 1420.61 568.68 1419.09 567.67C1417.58 566.626 1415.56 566.104 1413.03 566.104C1410.44 566.104 1408.34 566.609 1406.72 567.619C1405.1 568.596 1403.91 569.774 1403.14 571.154C1402.36 572.501 1401.91 573.764 1401.77 574.942H1423.49ZM1463.22 593.475C1465.61 593.475 1467.55 593.088 1469.03 592.314C1470.55 591.506 1471.52 590.917 1471.96 590.546L1477.06 598.121C1476.66 598.458 1475.81 598.963 1474.53 599.636C1473.26 600.276 1471.62 600.865 1469.64 601.404C1467.68 601.943 1465.46 602.212 1462.97 602.212C1458.86 602.212 1455.13 601.353 1451.76 599.636C1448.43 597.886 1445.75 595.378 1443.73 592.112C1441.74 588.813 1440.75 584.857 1440.75 580.244C1440.75 575.598 1441.74 571.643 1443.73 568.377C1445.75 565.111 1448.43 562.62 1451.76 560.903C1455.13 559.186 1458.86 558.327 1462.97 558.327C1465.43 558.327 1467.62 558.614 1469.54 559.186C1471.49 559.725 1473.1 560.347 1474.38 561.054C1475.66 561.761 1476.52 562.317 1476.96 562.721L1471.76 570.296C1471.52 570.06 1471.03 569.69 1470.29 569.185C1469.59 568.646 1468.64 568.158 1467.46 567.72C1466.29 567.283 1464.87 567.064 1463.22 567.064C1461.2 567.064 1459.27 567.603 1457.42 568.68C1455.56 569.757 1454.05 571.289 1452.87 573.275C1451.69 575.228 1451.1 577.551 1451.1 580.244C1451.1 582.938 1451.69 585.278 1452.87 587.264C1454.05 589.25 1455.56 590.782 1457.42 591.859C1459.27 592.937 1461.2 593.475 1463.22 593.475ZM1509.78 558.327C1512.57 558.327 1515.28 558.9 1517.91 560.044C1520.54 561.189 1522.69 563.024 1524.37 565.549C1526.09 568.04 1526.95 571.289 1526.95 575.295V601H1516.09V577.265C1516.09 573.528 1515.2 570.784 1513.42 569.033C1511.67 567.249 1509.39 566.357 1506.6 566.357C1504.75 566.357 1502.98 566.879 1501.3 567.922C1499.61 568.966 1498.23 570.38 1497.16 572.164C1496.11 573.949 1495.59 576.002 1495.59 578.325V601H1484.78V559.539H1495.59V566.508C1495.89 565.364 1496.7 564.169 1498.01 562.923C1499.36 561.644 1501.06 560.566 1503.11 559.691C1505.17 558.782 1507.39 558.327 1509.78 558.327ZM1557.5 602.212C1553.16 602.212 1549.28 601.269 1545.88 599.384C1542.52 597.465 1539.87 594.873 1537.96 591.607C1536.04 588.308 1535.08 584.571 1535.08 580.396C1535.08 576.221 1536.04 572.467 1537.96 569.134C1539.87 565.801 1542.52 563.175 1545.88 561.256C1549.28 559.304 1553.16 558.327 1557.5 558.327C1561.84 558.327 1565.68 559.304 1569.01 561.256C1572.35 563.175 1574.96 565.801 1576.84 569.134C1578.76 572.467 1579.72 576.221 1579.72 580.396C1579.72 584.571 1578.76 588.308 1576.84 591.607C1574.96 594.873 1572.35 597.465 1569.01 599.384C1565.68 601.269 1561.84 602.212 1557.5 602.212ZM1557.5 593.122C1559.92 593.122 1562.03 592.566 1563.81 591.455C1565.6 590.344 1566.98 588.829 1567.95 586.91C1568.93 584.991 1569.42 582.803 1569.42 580.345C1569.42 577.888 1568.93 575.699 1567.95 573.78C1566.98 571.828 1565.6 570.279 1563.81 569.134C1562.03 567.99 1559.92 567.417 1557.5 567.417C1555.07 567.417 1552.95 567.99 1551.14 569.134C1549.35 570.279 1547.95 571.828 1546.94 573.78C1545.97 575.699 1545.48 577.888 1545.48 580.345C1545.48 582.803 1545.97 584.991 1546.94 586.91C1547.95 588.829 1549.35 590.344 1551.14 591.455C1552.95 592.566 1555.07 593.122 1557.5 593.122ZM1599.85 601H1589V531.512H1599.85V601ZM1631.37 602.212C1627.03 602.212 1623.16 601.269 1619.76 599.384C1616.39 597.465 1613.75 594.873 1611.83 591.607C1609.91 588.308 1608.95 584.571 1608.95 580.396C1608.95 576.221 1609.91 572.467 1611.83 569.134C1613.75 565.801 1616.39 563.175 1619.76 561.256C1623.16 559.304 1627.03 558.327 1631.37 558.327C1635.72 558.327 1639.56 559.304 1642.89 561.256C1646.22 563.175 1648.83 565.801 1650.72 569.134C1652.64 572.467 1653.59 576.221 1653.59 580.396C1653.59 584.571 1652.64 588.308 1650.72 591.607C1648.83 594.873 1646.22 597.465 1642.89 599.384C1639.56 601.269 1635.72 602.212 1631.37 602.212ZM1631.37 593.122C1633.8 593.122 1635.9 592.566 1637.69 591.455C1639.47 590.344 1640.85 588.829 1641.83 586.91C1642.8 584.991 1643.29 582.803 1643.29 580.345C1643.29 577.888 1642.8 575.699 1641.83 573.78C1640.85 571.828 1639.47 570.279 1637.69 569.134C1635.9 567.99 1633.8 567.417 1631.37 567.417C1628.95 567.417 1626.83 567.99 1625.01 569.134C1623.23 570.279 1621.83 571.828 1620.82 573.78C1619.84 575.699 1619.36 577.888 1619.36 580.345C1619.36 582.803 1619.84 584.991 1620.82 586.91C1621.83 588.829 1623.23 590.344 1625.01 591.455C1626.83 592.566 1628.95 593.122 1631.37 593.122ZM1683.12 623.17C1679.96 623.17 1677.01 622.85 1674.29 622.21C1671.59 621.604 1669.19 620.678 1667.06 619.433C1664.94 618.221 1663.23 616.722 1661.91 614.938L1668.63 608.272C1669.34 609.147 1670.25 610.056 1671.36 610.999C1672.47 611.975 1673.93 612.783 1675.75 613.423C1677.57 614.096 1679.87 614.433 1682.67 614.433C1685.4 614.433 1687.72 613.878 1689.64 612.767C1691.59 611.656 1693.07 610.124 1694.08 608.171C1695.13 606.252 1695.65 604.03 1695.65 601.505V600.242H1706.25V602.162C1706.25 606.74 1705.23 610.578 1703.17 613.676C1701.12 616.807 1698.34 619.163 1694.84 620.746C1691.34 622.362 1687.43 623.17 1683.12 623.17ZM1695.65 601V593.324C1695.38 594.132 1694.6 595.243 1693.32 596.657C1692.08 598.071 1690.36 599.35 1688.17 600.495C1686.02 601.64 1683.46 602.212 1680.5 602.212C1676.63 602.212 1673.14 601.286 1670.04 599.434C1666.95 597.583 1664.51 595.007 1662.72 591.708C1660.94 588.409 1660.04 584.604 1660.04 580.295C1660.04 575.986 1660.94 572.181 1662.72 568.882C1664.51 565.583 1666.95 563.007 1670.04 561.155C1673.14 559.27 1676.63 558.327 1680.5 558.327C1683.39 558.327 1685.9 558.832 1688.02 559.842C1690.14 560.852 1691.84 562.014 1693.12 563.327C1694.44 564.64 1695.24 565.785 1695.55 566.761V559.539H1706.25V601H1695.65ZM1670.7 580.295C1670.7 582.955 1671.29 585.278 1672.47 587.264C1673.65 589.25 1675.18 590.782 1677.06 591.859C1678.98 592.937 1681.04 593.475 1683.22 593.475C1685.58 593.475 1687.67 592.92 1689.49 591.809C1691.34 590.698 1692.79 589.166 1693.83 587.213C1694.91 585.227 1695.45 582.921 1695.45 580.295C1695.45 577.669 1694.91 575.38 1693.83 573.427C1692.79 571.441 1691.34 569.892 1689.49 568.781C1687.67 567.636 1685.58 567.064 1683.22 567.064C1681.04 567.064 1678.98 567.619 1677.06 568.73C1675.18 569.808 1673.65 571.34 1672.47 573.326C1671.29 575.312 1670.7 577.635 1670.7 580.295ZM1716.95 601V559.539H1727.05V601H1716.95ZM1715.69 554.186L1712.15 549.389L1727.81 536.259L1733.56 543.43L1715.69 554.186ZM1770.81 601V593.324C1770.54 594.132 1769.76 595.243 1768.48 596.657C1767.24 598.071 1765.52 599.35 1763.33 600.495C1761.18 601.64 1758.62 602.212 1755.66 602.212C1751.78 602.212 1748.3 601.286 1745.2 599.434C1742.1 597.583 1739.66 595.007 1737.88 591.708C1736.1 588.409 1735.2 584.604 1735.2 580.295C1735.2 575.986 1736.1 572.181 1737.88 568.882C1739.66 565.583 1742.1 563.007 1745.2 561.155C1748.3 559.27 1751.78 558.327 1755.66 558.327C1758.55 558.327 1761.06 558.832 1763.18 559.842C1765.3 560.852 1767 562.014 1768.28 563.327C1769.59 564.64 1770.4 565.785 1770.7 566.761V559.539H1781.41V601H1770.81ZM1745.86 580.295C1745.86 582.955 1746.45 585.278 1747.63 587.264C1748.8 589.25 1750.34 590.782 1752.22 591.859C1754.14 592.937 1756.19 593.475 1758.38 593.475C1760.74 593.475 1762.83 592.92 1764.64 591.809C1766.5 590.698 1767.94 589.166 1768.99 587.213C1770.06 585.227 1770.6 582.921 1770.6 580.295C1770.6 577.669 1770.06 575.38 1768.99 573.427C1767.94 571.441 1766.5 569.892 1764.64 568.781C1762.83 567.636 1760.74 567.064 1758.38 567.064C1756.19 567.064 1754.14 567.619 1752.22 568.73C1750.34 569.808 1748.8 571.34 1747.63 573.326C1746.45 575.312 1745.86 577.635 1745.86 580.295ZM1825.59 582.82C1825.66 585.008 1826.18 586.978 1827.16 588.728C1828.13 590.479 1829.56 591.859 1831.45 592.869C1833.37 593.846 1835.71 594.334 1838.47 594.334C1840.86 594.334 1842.91 594.014 1844.63 593.374C1846.38 592.701 1847.83 591.91 1848.97 591.001C1850.12 590.058 1850.96 589.183 1851.5 588.375L1856.29 594.889C1855.25 596.303 1853.94 597.566 1852.35 598.677C1850.77 599.788 1848.8 600.646 1846.45 601.253C1844.12 601.892 1841.24 602.212 1837.81 602.212C1833.3 602.212 1829.38 601.286 1826.04 599.434C1822.71 597.583 1820.12 594.974 1818.27 591.607C1816.45 588.24 1815.54 584.301 1815.54 579.79C1815.54 575.75 1816.38 572.114 1818.07 568.882C1819.75 565.616 1822.19 563.041 1825.39 561.155C1828.62 559.27 1832.49 558.327 1837 558.327C1841.21 558.327 1844.86 559.169 1847.96 560.852C1851.06 562.536 1853.45 564.96 1855.13 568.124C1856.85 571.255 1857.71 575.043 1857.71 579.487C1857.71 579.756 1857.69 580.312 1857.66 581.153C1857.66 581.995 1857.62 582.551 1857.56 582.82H1825.59ZM1847.61 574.942C1847.57 573.865 1847.2 572.636 1846.5 571.255C1845.82 569.875 1844.73 568.68 1843.21 567.67C1841.7 566.626 1839.68 566.104 1837.15 566.104C1834.56 566.104 1832.46 566.609 1830.84 567.619C1829.23 568.596 1828.03 569.774 1827.26 571.154C1826.48 572.501 1826.03 573.764 1825.89 574.942H1847.61ZM1893.39 534.34H1904V601H1893.39V534.34ZM1942.09 558.327C1944.88 558.327 1947.59 558.9 1950.22 560.044C1952.84 561.189 1955 563.024 1956.68 565.549C1958.4 568.04 1959.26 571.289 1959.26 575.295V601H1948.4V577.265C1948.4 573.528 1947.51 570.784 1945.72 569.033C1943.97 567.249 1941.7 566.357 1938.91 566.357C1937.05 566.357 1935.29 566.879 1933.6 567.922C1931.92 568.966 1930.54 570.38 1929.46 572.164C1928.42 573.949 1927.9 576.002 1927.9 578.325V601H1917.09V559.539H1927.9V566.508C1928.2 565.364 1929.01 564.169 1930.32 562.923C1931.67 561.644 1933.37 560.566 1935.42 559.691C1937.48 558.782 1939.7 558.327 1942.09 558.327ZM1994.86 558.327C1997.65 558.327 2000.36 558.9 2002.99 560.044C2005.61 561.189 2007.77 563.024 2009.45 565.549C2011.17 568.04 2012.03 571.289 2012.03 575.295V601H2001.17V577.265C2001.17 573.528 2000.28 570.784 1998.49 569.033C1996.74 567.249 1994.47 566.357 1991.68 566.357C1989.82 566.357 1988.06 566.879 1986.37 567.922C1984.69 568.966 1983.31 570.38 1982.23 572.164C1981.19 573.949 1980.67 576.002 1980.67 578.325V601H1969.86V559.539H1980.67V566.508C1980.97 565.364 1981.78 564.169 1983.09 562.923C1984.44 561.644 1986.14 560.566 1988.19 559.691C1990.24 558.782 1992.47 558.327 1994.86 558.327ZM2042.58 602.212C2038.23 602.212 2034.36 601.269 2030.96 599.384C2027.59 597.465 2024.95 594.873 2023.03 591.607C2021.11 588.308 2020.15 584.571 2020.15 580.396C2020.15 576.221 2021.11 572.467 2023.03 569.134C2024.95 565.801 2027.59 563.175 2030.96 561.256C2034.36 559.304 2038.23 558.327 2042.58 558.327C2046.92 558.327 2050.76 559.304 2054.09 561.256C2057.42 563.175 2060.03 565.801 2061.92 569.134C2063.84 572.467 2064.8 576.221 2064.8 580.396C2064.8 584.571 2063.84 588.308 2061.92 591.607C2060.03 594.873 2057.42 597.465 2054.09 599.384C2050.76 601.269 2046.92 602.212 2042.58 602.212ZM2042.58 593.122C2045 593.122 2047.1 592.566 2048.89 591.455C2050.67 590.344 2052.05 588.829 2053.03 586.91C2054 584.991 2054.49 582.803 2054.49 580.345C2054.49 577.888 2054 575.699 2053.03 573.78C2052.05 571.828 2050.67 570.279 2048.89 569.134C2047.1 567.99 2045 567.417 2042.58 567.417C2040.15 567.417 2038.03 567.99 2036.21 569.134C2034.43 570.279 2033.03 571.828 2032.02 573.78C2031.04 575.699 2030.56 577.888 2030.56 580.345C2030.56 582.803 2031.04 584.991 2032.02 586.91C2033.03 588.829 2034.43 590.344 2036.21 591.455C2038.03 592.566 2040.15 593.122 2042.58 593.122ZM2069.88 559.539H2081.45L2093.92 591.102L2106.39 559.539H2117.91L2100.28 601H2087.61L2069.88 559.539ZM2158.53 601V593.324C2158.26 594.132 2157.49 595.243 2156.21 596.657C2154.96 598.071 2153.25 599.35 2151.06 600.495C2148.9 601.64 2146.34 602.212 2143.38 602.212C2139.51 602.212 2136.02 601.286 2132.93 599.434C2129.83 597.583 2127.39 595.007 2125.6 591.708C2123.82 588.409 2122.93 584.604 2122.93 580.295C2122.93 575.986 2123.82 572.181 2125.6 568.882C2127.39 565.583 2129.83 563.007 2132.93 561.155C2136.02 559.27 2139.51 558.327 2143.38 558.327C2146.28 558.327 2148.78 558.832 2150.91 559.842C2153.03 560.852 2154.73 562.014 2156.01 563.327C2157.32 564.64 2158.13 565.785 2158.43 566.761V559.539H2169.14V601H2158.53ZM2133.58 580.295C2133.58 582.955 2134.17 585.278 2135.35 587.264C2136.53 589.25 2138.06 590.782 2139.95 591.859C2141.87 592.937 2143.92 593.475 2146.11 593.475C2148.46 593.475 2150.55 592.92 2152.37 591.809C2154.22 590.698 2155.67 589.166 2156.71 587.213C2157.79 585.227 2158.33 582.921 2158.33 580.295C2158.33 577.669 2157.79 575.38 2156.71 573.427C2155.67 571.441 2154.22 569.892 2152.37 568.781C2150.55 567.636 2148.46 567.064 2146.11 567.064C2143.92 567.064 2141.87 567.619 2139.95 568.73C2138.06 569.808 2136.53 571.34 2135.35 573.326C2134.17 575.312 2133.58 577.635 2133.58 580.295ZM2200.7 593.475C2203.09 593.475 2205.03 593.088 2206.51 592.314C2208.02 591.506 2209 590.917 2209.44 590.546L2214.54 598.121C2214.13 598.458 2213.29 598.963 2212.01 599.636C2210.73 600.276 2209.1 600.865 2207.11 601.404C2205.16 601.943 2202.94 602.212 2200.45 602.212C2196.34 602.212 2192.6 601.353 2189.24 599.636C2185.9 597.886 2183.23 595.378 2181.21 592.112C2179.22 588.813 2178.23 584.857 2178.23 580.244C2178.23 575.598 2179.22 571.643 2181.21 568.377C2183.23 565.111 2185.9 562.62 2189.24 560.903C2192.6 559.186 2196.34 558.327 2200.45 558.327C2202.91 558.327 2205.09 558.614 2207.01 559.186C2208.97 559.725 2210.58 560.347 2211.86 561.054C2213.14 561.761 2214 562.317 2214.44 562.721L2209.23 570.296C2209 570.06 2208.51 569.69 2207.77 569.185C2207.06 568.646 2206.12 568.158 2204.94 567.72C2203.76 567.283 2202.35 567.064 2200.7 567.064C2198.68 567.064 2196.74 567.603 2194.89 568.68C2193.04 569.757 2191.53 571.289 2190.35 573.275C2189.17 575.228 2188.58 577.551 2188.58 580.244C2188.58 582.938 2189.17 585.278 2190.35 587.264C2191.53 589.25 2193.04 590.782 2194.89 591.859C2196.74 592.937 2198.68 593.475 2200.7 593.475ZM2223.07 601V559.539H2233.83V601H2223.07ZM2228.58 547.116C2226.76 547.116 2225.19 546.46 2223.88 545.147C2222.6 543.834 2221.96 542.268 2221.96 540.45C2221.96 538.632 2222.6 537.067 2223.88 535.754C2225.19 534.407 2226.76 533.734 2228.58 533.734C2229.79 533.734 2230.9 534.054 2231.91 534.693C2232.95 535.299 2233.78 536.107 2234.39 537.117C2235.02 538.094 2235.34 539.205 2235.34 540.45C2235.34 542.268 2234.69 543.834 2233.38 545.147C2232.06 546.46 2230.46 547.116 2228.58 547.116ZM2266.18 602.212C2261.83 602.212 2257.96 601.269 2254.56 599.384C2251.19 597.465 2248.55 594.873 2246.63 591.607C2244.71 588.308 2243.75 584.571 2243.75 580.396C2243.75 576.221 2244.71 572.467 2246.63 569.134C2248.55 565.801 2251.19 563.175 2254.56 561.256C2257.96 559.304 2261.83 558.327 2266.18 558.327C2270.52 558.327 2274.36 559.304 2277.69 561.256C2281.02 563.175 2283.63 565.801 2285.52 569.134C2287.44 572.467 2288.4 576.221 2288.4 580.396C2288.4 584.571 2287.44 588.308 2285.52 591.607C2283.63 594.873 2281.02 597.465 2277.69 599.384C2274.36 601.269 2270.52 602.212 2266.18 602.212ZM2266.18 593.122C2268.6 593.122 2270.7 592.566 2272.49 591.455C2274.27 590.344 2275.65 588.829 2276.63 586.91C2277.61 584.991 2278.09 582.803 2278.09 580.345C2278.09 577.888 2277.61 575.699 2276.63 573.78C2275.65 571.828 2274.27 570.279 2272.49 569.134C2270.7 567.99 2268.6 567.417 2266.18 567.417C2263.75 567.417 2261.63 567.99 2259.81 569.134C2258.03 570.279 2256.63 571.828 2255.62 573.78C2254.64 575.699 2254.16 577.888 2254.16 580.345C2254.16 582.803 2254.64 584.991 2255.62 586.91C2256.63 588.829 2258.03 590.344 2259.81 591.455C2261.63 592.566 2263.75 593.122 2266.18 593.122ZM2259.71 554.186L2256.18 549.389L2271.83 536.259L2277.59 543.43L2259.71 554.186ZM2322.32 558.327C2325.11 558.327 2327.82 558.9 2330.45 560.044C2333.07 561.189 2335.23 563.024 2336.91 565.549C2338.63 568.04 2339.49 571.289 2339.49 575.295V601H2328.63V577.265C2328.63 573.528 2327.74 570.784 2325.95 569.033C2324.2 567.249 2321.93 566.357 2319.14 566.357C2317.28 566.357 2315.52 566.879 2313.83 567.922C2312.15 568.966 2310.77 570.38 2309.69 572.164C2308.65 573.949 2308.13 576.002 2308.13 578.325V601H2297.32V559.539H2308.13V566.508C2308.43 565.364 2309.24 564.169 2310.55 562.923C2311.9 561.644 2313.6 560.566 2315.65 559.691C2317.71 558.782 2319.93 558.327 2322.32 558.327Z" fill="#5B5A5D"/>
</svg>
